<?xml version="1.0" encoding="UTF-8"?>
<!DOCTYPE svg PUBLIC "-//W3C//DTD SVG 1.1//EN" "http://www.w3.org/Graphics/SVG/1.1/DTD/svg11.dtd">
<!-- Creator: CorelDRAW -->
<svg xmlns="http://www.w3.org/2000/svg" xml:space="preserve" width="591px" height="295px" version="1.1" style="shape-rendering:geometricPrecision; text-rendering:geometricPrecision; image-rendering:optimizeQuality; fill-rule:evenodd; clip-rule:evenodd"
viewBox="0 0 1404.64 702.32"
 xmlns:xlink="http://www.w3.org/1999/xlink"
 xmlns:xodm="http://www.corel.com/coreldraw/odm/2003">
 <defs>
  <style type="text/css">
   <![CDATA[
    .fil0 {fill:none}
    .fil5 {fill:#FEFEFE}
    .fil7 {fill:#FEFEFE;fill-rule:nonzero}
    .fil1 {fill:#00A0E3;fill-rule:nonzero}
    .fil4 {fill:url(#id0)}
    .fil6 {fill:url(#id1)}
    .fil2 {fill:url(#id2)}
    .fil3 {fill:url(#id3)}
   ]]>
  </style>
  <linearGradient id="id0" gradientUnits="userSpaceOnUse" x1="288.49" y1="35.14" x2="288.49" y2="475.9">
   <stop offset="0" style="stop-opacity:1; stop-color:#E41D37"/>
   <stop offset="1" style="stop-opacity:1; stop-color:#E51170"/>
  </linearGradient>
  <linearGradient id="id1" gradientUnits="userSpaceOnUse" x1="1300.02" y1="35.14" x2="1300.02" y2="475.91">
   <stop offset="0" style="stop-opacity:1; stop-color:#57A7B3"/>
   <stop offset="1" style="stop-opacity:1; stop-color:#66C3D0"/>
  </linearGradient>
  <linearGradient id="id2" gradientUnits="userSpaceOnUse" x1="688.27" y1="35.13" x2="688.27" y2="475.91">
   <stop offset="0" style="stop-opacity:1; stop-color:#F39314"/>
   <stop offset="1" style="stop-opacity:1; stop-color:#FECC00"/>
  </linearGradient>
  <linearGradient id="id3" gradientUnits="userSpaceOnUse" xlink:href="#id1" x1="1055.17" y1="35.13" x2="1055.17" y2="475.91">
  </linearGradient>
 </defs>
 <g id="Layer_x0020_1">
  <metadata id="CorelCorpID_0Corel-Layer"/>
  <g id="_2531822828976">
   <rect class="fil0" width="1404.64" height="702.32"/>
   <polygon class="fil1" points="287.89,633.19 287.89,664.7 188.52,664.7 188.52,532.5 287.89,532.5 287.89,563.02 228.3,563.02 228.3,582.25 276.41,582.25 276.41,611.58 228.3,611.58 228.3,633.19 "/>
   <path id="_1" class="fil1" d="M475.02 532.5l-40.97 132.2 -41.28 0 -42.95 -132.2 42.66 0 20.98 71.88c1.42,4.23 2.7,8.43 3.79,12.56l24.45 -84.44 33.32 0z"/>
   <polygon id="_2" class="fil1" points="643.35,633.19 643.35,664.7 543.98,664.7 543.98,532.5 643.35,532.5 643.35,563.02 583.77,563.02 583.77,582.25 631.87,582.25 631.87,611.58 583.77,611.58 583.77,633.19 "/>
   <path id="_3" class="fil1" d="M829.03 664.7l-33.06 0 -36.29 -58.3c-4.68,-7.5 -9.27,-16.62 -13.82,-27.45 2.14,8.52 3.2,15.75 3.2,21.7l0 64.05 -32.86 0 0 -132.2 38.2 0 30.79 48.43c6.13,9.61 10.75,18.1 13.89,25.4 -2.08,-11.3 -3.11,-22.86 -3.11,-34.69l0 -39.14 33.06 0 0 132.2z"/>
   <polygon id="_4" class="fil1" points="963.15,564.21 963.15,664.7 924.74,664.7 924.74,564.21 897.43,564.21 897.43,532.5 990.46,532.5 990.46,564.21 "/>
   <path id="_5" class="fil1" d="M1048.04 626.28l37.61 -6.77c3.16,10.7 11.25,16.06 24.35,16.06 10.16,0 15.24,-2.71 15.24,-8.13 0,-2.84 -1.19,-5.05 -3.53,-6.61 -2.34,-1.58 -6.53,-3 -12.61,-4.19 -23.09,-4.43 -37.94,-10.24 -44.5,-17.38 -6.57,-7.17 -9.83,-15.59 -9.83,-25.27 0,-12.45 4.71,-22.83 14.15,-31.09 9.44,-8.25 23,-12.38 40.71,-12.38 26.86,0 44.57,10.8 53.22,32.43l-33.46 10.18c-3.49,-8.85 -10.55,-13.28 -21.18,-13.28 -8.84,0 -13.26,2.74 -13.26,8.23 0,2.44 0.99,4.36 3,5.71 1.98,1.35 5.84,2.61 11.58,3.83 15.81,3.28 27.02,6.18 33.66,8.73 6.63,2.51 12.17,6.9 16.59,13.18 4.42,6.24 6.63,13.61 6.63,22.1 0,13.37 -5.41,24.24 -16.23,32.57 -10.82,8.32 -25.04,12.49 -42.63,12.49 -32.13,0 -51.99,-13.48 -59.51,-40.41z"/>
   <polygon class="fil2" points="504.82,35.11 871.68,35.11 871.68,475.92 504.82,475.92 "/>
   <polygon class="fil3" points="871.71,35.11 1238.58,35.11 1238.58,475.92 871.71,475.92 "/>
   <path class="fil4" d="M108.13 145.36l0 22.78c-38.42,0 -47.82,44.92 -27.32,65.31 6.77,6.73 16.85,10.65 27.32,10.65l0 22.78c-6.48,0 -11.2,0.97 -15.84,3.15 -4.14,1.95 -8.5,4.54 -11.48,7.5 -20.5,20.39 -11.1,65.31 27.32,65.31l0 22.78c-50.4,0 -50.4,75.96 0,75.96 0,8.38 0.2,11.4 2.84,17.1 1.93,4.16 5.22,8.21 8.93,11.01 10.25,7.73 18.04,6.06 34.76,6.06l352.05 0 0 -440.52 -352.05 0c-18.1,0 -33.26,-2.43 -43.39,16.42 -3.26,6.08 -3.14,8.99 -3.14,17.75 -10.47,0 -20.55,3.93 -27.32,10.66 -20.5,20.38 -11.1,65.3 27.32,65.3z"/>
   <path class="fil5" d="M108.28 426.95l37.38 0c3.93,0 7.15,3.22 7.15,7.15l0 0.01c0,3.93 -3.22,7.15 -7.15,7.15l-37.38 0 0 -14.31z"/>
   <path class="fil5" d="M108.28 327.36l37.38 0c3.93,0 7.15,3.22 7.15,7.16l0 0c0,3.94 -3.22,7.16 -7.15,7.16l-37.38 0 0 -14.32z"/>
   <path class="fil5" d="M108.28 228.83l37.38 0c3.93,0 7.15,3.22 7.15,7.15l0 0.01c0,3.93 -3.22,7.15 -7.15,7.15l-37.38 0 0 -14.31z"/>
   <path class="fil5" d="M108.28 129.31l37.38 0c3.93,0 7.15,3.22 7.15,7.15l0 0.01c0,3.93 -3.22,7.15 -7.15,7.15l-37.38 0 0 -14.31z"/>
   <path class="fil5" d="M104.02 82.47l0 0c-13.37,0 -24.31,10.95 -24.31,24.31l0 0.01c0,13.36 10.95,24.31 24.31,24.31l0 0 0 -48.63z"/>
   <path class="fil5" d="M103.18 181.99l0 0c-13.37,0 -24.32,10.95 -24.32,24.32l0 0c0,13.36 10.96,24.31 24.32,24.31l0 0 0 -48.63z"/>
   <path class="fil5" d="M104.45 280.52l0 0c-13.37,0 -24.32,10.96 -24.32,24.32l0 0c0,13.36 10.96,24.32 24.32,24.32l0 0 0 -48.64z"/>
   <path class="fil5" d="M104.03 380.11l0 0c-13.37,0 -24.32,10.96 -24.32,24.32l0 0c0,13.36 10.96,24.31 24.32,24.31l0 0 0 -48.63z"/>
   <path class="fil6" d="M1265.62 118.9l68.32 0c0,-19.42 2.56,-44.02 -4.39,-58.23 -4.54,-9.25 -11.62,-16.34 -20.88,-20.87 -12.9,-6.32 -26.85,-4.4 -43.05,-4.4l0 83.5zm0 86.35l68.32 0 0 -71.17 -68.32 0 0 71.17zm0 86.36l68.32 0 0 -72.12 -68.32 0 0 72.12zm0 85.4l68.32 0 0 -71.17 -68.32 0 0 71.17zm0 98.69c19.48,0 40.65,3.04 55.72,-13.56l8.52 -12.36c6.38,-13.66 4.08,-39.5 4.08,-57.59l-68.32 0 0 83.51z"/>
   <g>
    <path class="fil7" d="M187.04 318.34l85.35 -15.37c7.19,24.29 25.53,36.43 55.25,36.43 23.06,0 34.59,-6.14 34.59,-18.44 0,-6.45 -2.69,-11.47 -8,-14.99 -5.32,-3.6 -14.83,-6.82 -28.61,-9.52 -52.41,-10.05 -86.1,-23.24 -101,-39.44 -14.9,-16.27 -22.31,-35.38 -22.31,-57.35 0,-28.26 10.71,-51.8 32.12,-70.54 21.41,-18.75 52.18,-28.12 92.39,-28.12 60.95,0 101.15,24.52 120.77,73.62l-75.92 23.09c-7.94,-20.09 -23.96,-30.13 -48.07,-30.13 -20.07,0 -30.1,6.22 -30.1,18.66 0,5.55 2.25,9.9 6.82,12.97 4.49,3.08 13.25,5.92 26.27,8.7 35.87,7.42 61.32,14.02 76.37,19.79 15.05,5.7 27.63,15.67 37.66,29.91 10.04,14.17 15.05,30.89 15.05,50.16 0,30.36 -12.28,55.02 -36.83,73.92 -24.56,18.89 -56.83,28.33 -96.74,28.33 -72.92,0 -117.99,-30.58 -135.06,-91.68z"/>
    <polygon class="fil7" points="851.09,105.51 851.09,405.53 765.74,405.53 765.74,190.97 709.96,405.53 651.64,405.53 594.13,190.97 594.13,405.53 525.4,405.53 525.4,105.51 645.27,105.51 688.7,264.89 730.17,105.51 "/>
    <polygon class="fil7" points="1167.89,334.01 1167.89,405.53 942.38,405.53 942.38,105.5 1167.89,105.5 1167.89,174.77 1032.68,174.77 1032.68,218.4 1141.84,218.4 1141.84,284.98 1032.68,284.98 1032.68,334.01 "/>
   </g>
  </g>
 </g>
</svg>
